Coordinates
version=1
nRows=24
nColumns=24
inDegrees=yes

Units are S.I. units (second, meters, Newtons, ...)
Angles are in degrees.

endheader
time	pelvis_tilt	pelvis_list	pelvis_rotation	pelvis_tx	pelvis_ty	pelvis_tz	hip_flexion_r	hip_adduction_r	hip_rotation_r	knee_angle_r	ankle_angle_r	subtalar_angle_r	mtp_angle_r	hip_flexion_l	hip_adduction_l	hip_rotation_l	knee_angle_l	ankle_angle_l	subtalar_angle_l	mtp_angle_l	lumbar_extension	lumbar_bending	lumbar_rotation
      8.14000000	      8.54845799	      8.40745492	     -5.58044520	      0.19761546	      0.89495343	      0.19612323	     11.73367606	     -9.10150530	     -1.37556140	    -71.03348396	     -5.95677240	     -6.52955494	      0.00000000	      0.07126006	     14.20121859	      6.51228049	    -12.09559947	      8.80506487	    -11.27206002	      0.00000000	    -22.44059361	     -9.13697713	     -4.69322969
      8.15000000	      8.48072788	      8.13044871	     -5.34985014	      0.20878579	      0.89599863	      0.19556327	     13.28899141	     -8.92469282	     -1.85911646	    -70.57098156	     -4.61746014	     -6.37126889	      0.00000000	     -0.93739722	     14.01613918	      7.17463108	    -11.72133615	      9.19501163	    -11.54337792	      0.00000000	    -22.46121118	     -8.53714714	     -4.75518857
      8.16000000	      8.39973247	      7.86523970	     -5.13551610	      0.21989345	      0.89689174	      0.19510609	     14.76866985	     -8.73921154	     -2.31760560	    -69.77339289	     -3.28377110	     -6.04358511	      0.00000000	     -1.93807159	     13.81149401	      7.72046598	    -11.31093063	      9.60392358	    -11.67502193	      0.00000000	    -22.47325019	     -7.96271717	     -4.81145630
      8.17000000	      8.29399504	      7.60701461	     -4.98126700	      0.23092119	      0.89756742	      0.19483074	     16.20116175	     -8.50858884	     -2.69174604	    -68.66020807	     -1.97916748	     -5.62217934	      0.00000000	     -2.90970411	     13.58474947	      8.12426146	    -10.87031854	     10.08177750	    -11.67666003	      0.00000000	    -22.47687073	     -7.42442419	     -4.77395653
      8.18000000	      8.19411427	      7.45774387	     -4.75386362	      0.24197909	      0.89805343	      0.19448229	     17.51669532	     -8.42010416	     -3.11720572	    -67.25151430	     -0.54671306	     -4.92028742	      0.00000000	     -3.90968908	     13.45089365	      8.58335373	    -10.38368448	     10.47005151	    -11.62443371	      0.00000000	    -22.47029221	     -6.99100868	     -4.94774152
      8.19000000	      8.07295097	      7.32723840	     -4.58393585	      0.25298203	      0.89828800	      0.19430506	     18.77475932	     -8.29465224	     -3.44701706	    -65.54541968	      0.83641826	     -4.17538012	      0.00000000	     -4.88366028	     13.31624022	      8.95645947	     -9.87396711	     10.90681724	    -11.53316864	      0.00000000	    -22.46199048	     -6.60859910	     -5.05261157
      8.20000000	      7.93451523	      7.25255427	     -4.41956263	      0.26394908	      0.89827723	      0.19420840	     19.95409523	     -8.20046891	     -3.73093482	    -63.54972838	      2.18750303	     -3.35750876	      0.00000000	     -5.83405572	     13.22229648	      9.29316122	     -9.35393562	     11.34651290	    -11.39806852	      0.00000000	    -22.45009078	     -6.30149321	     -5.20655366
      8.21000000	      7.77231393	      7.22770674	     -4.24998579	      0.27488514	      0.89802074	      0.19417269	     21.04862946	     -8.13924593	     -3.98670949	    -61.26301446	      3.45433698	     -2.53105247	      0.00000000	     -6.75207196	     13.16491421	      9.62367948	     -8.83397608	     11.78277350	    -11.25535293	      0.00000000	    -22.43316696	     -6.06079434	     -5.41928687
      8.22000000	      7.58496066	      7.24530848	     -4.05211576	      0.28577686	      0.89754428	      0.19416500	     22.03818547	     -8.11545060	     -4.24078613	    -58.67493090	      4.59101988	     -1.74565761	      0.00000000	     -7.63905857	     13.13464745	      9.99233674	     -8.31544535	     12.20143823	    -11.11596452	      0.00000000	    -22.41363032	     -5.86813392	     -5.71302871
      8.23000000	      7.36072993	      7.28571260	     -3.82084910	      0.29663961	      0.89686689	      0.19420545	     22.91238635	     -8.10826029	     -4.50204188	    -55.77456619	      5.54689662	     -1.06239528	      0.00000000	     -8.48173152	     13.10751889	     10.41006456	     -7.80772820	     12.59497101	    -10.98997151	      0.00000000	    -22.38597048	     -5.70432853	     -6.08127695
      8.24000000	      7.13206476	      7.34572526	     -3.51379706	      0.30749510	      0.89604860	      0.19421213	     23.60607534	     -8.15541577	     -4.85385044	    -52.55663270	      6.29485073	     -0.51424801	      0.00000000	     -9.32524674	     13.07794427	     10.92640761	     -7.30481385	     12.99006901	    -10.89663942	      0.00000000	    -22.35912680	     -5.56380257	     -6.60512405
      8.25000000	      6.88130266	      7.39950338	     -3.16149732	      0.31828140	      0.89508694	      0.19423527	     24.12792939	     -8.19499593	     -5.22802277	    -49.01445039	      6.85572477	     -0.13159788	      0.00000000	    -10.13257719	     13.02122055	     11.50944493	     -6.82908281	     13.35254706	    -10.84585168	      0.00000000	    -22.36705482	     -5.39526678	     -7.23065842
      8.26000000	      6.58944774	      7.46216540	     -2.76178380	      0.32908854	      0.89394043	      0.19423768	     24.48964663	     -8.26870114	     -5.68722383	    -45.17108649	      7.26229232	      0.13026905	      0.00000000	    -10.88109322	     12.95761439	     12.09517210	     -6.39004458	     13.72883936	    -10.79428833	      0.00000000	    -22.33344758	     -5.22949267	     -7.89238750
      8.27000000	      6.28239195	      7.53096843	     -2.28890305	      0.33992054	      0.89266300	      0.19420952	     24.64925277	     -8.37653748	     -6.25973375	    -41.04742932	      7.52445662	      0.28733271	      0.00000000	    -11.58931936	     12.88086700	     12.71601985	     -6.01525980	     14.12177959	    -10.73171998	      0.00000000	    -22.29325477	     -5.05874819	     -8.63873146
      8.28000000	      5.98727747	      7.60626101	     -1.74124823	      0.35080460	      0.89128381	      0.19414704	     24.58622832	     -8.51884074	     -6.96687211	    -36.70319554	      7.66728313	      0.40898773	      0.00000000	    -12.28029809	     12.79396052	     13.38040945	     -5.72194076	     14.52812543	    -10.68706873	      0.00000000	    -22.27835219	     -4.88454944	     -9.46754374
      8.29000000	      5.72143499	      7.69544543	     -1.11688590	      0.36177707	      0.88982802	      0.19405612	     24.31238419	     -8.70251160	     -7.84374870	    -32.23768104	      7.70472791	      0.57953107	      0.00000000	    -12.96615219	     12.70410008	     14.10162488	     -5.52885470	     14.94079105	    -10.67273171	      0.00000000	    -22.29503822	     -4.71678959	    -10.36228563
      8.30000000	      5.49282300	      7.81067626	     -0.43572648	      0.37289068	      0.88830115	      0.19396016	     23.87773868	     -8.92790044	     -8.90812523	    -27.79821581	      7.66482632	      0.88347629	      0.00000000	    -13.64869768	     12.62816819	     14.87797462	     -5.45603898	     15.35144263	    -10.69852422	      0.00000000	    -22.33973065	     -4.57910159	    -11.29026513
      8.31000000	      5.27949709	      7.96260509	      0.31148117	      0.38413837	      0.88669280	      0.19391041	     23.36989021	     -9.18847870	    -10.15126182	    -23.55106014	      7.58398305	      1.35209207	      0.00000000	    -14.28552533	     12.57290796	     15.69361103	     -5.53900191	     15.78219146	    -10.73873631	      0.00000000	    -22.38654945	     -4.49938421	    -12.24757505
      8.32000000	      5.14145527	      8.12067376	      1.09017137	      0.39552563	      0.88514741	      0.19393720	     22.77902688	     -9.43858448	    -11.52567946	    -19.65153297	      7.50244100	      2.11062355	      0.00000000	    -14.94335660	     12.50813224	     16.56507112	     -5.77163029	     16.18464383	    -10.82145754	      0.00000000	    -22.50876898	     -4.44150953	    -13.19224495
      8.33000000	      5.05634389	      8.26923030	      1.86724516	      0.40704687	      0.88368007	      0.19412366	     22.17645348	     -9.62926798	    -12.84592199	    -16.22680722	      7.43306416	      3.05091253	      0.00000000	    -15.58608895	     12.42136261	     17.44334148	     -6.16282984	     16.56099212	    -10.92545366	      0.00000000	    -22.67773636	     -4.40884536	    -14.07299295
      8.34000000	      4.99283372	      8.40506959	      2.60647605	      0.41873173	      0.88230296	      0.19455256	     21.61204921	     -9.73318235	    -13.85804005	    -13.34220130	      7.34683775	      3.93246990	      0.00000000	    -16.17088251	     12.31421973	     18.26217180	     -6.72252814	     16.89959770	    -10.95372107	      0.00000000	    -22.83400819	     -4.41809065	    -14.85485951
      8.35000000	      4.92830875	      8.51653550	      3.30485960	      0.43050536	      0.88101682	      0.19514563	     21.10705335	     -9.75716740	    -14.28446739	    -11.03242583	      7.22233117	      4.59358441	      0.00000000	    -16.66104764	     12.18741580	     18.94867769	     -7.44865403	     17.22424478	    -10.87361747	      0.00000000	    -22.98888000	     -4.44111239	    -15.52301875
      8.36000000	      4.84895049	      8.68913499	      3.92404956	      0.44224419	      0.87977912	      0.19592370	     20.72000768	     -9.81347541	    -14.03840750	     -9.36808001	      7.14354073	      4.96720226	      0.00000000	    -17.00567636	     12.15258662	     19.50346985	     -8.41555985	     17.49308661	    -10.64031904	      0.00000000	    -23.15068988	     -4.59019897	    -16.05104675
      8.37000000	      4.93366642	      8.70191440	      4.47619252	      0.45441814	      0.87895278	      0.19685297	     20.11695625	     -9.67641506	    -13.45340335	     -8.16203137	      7.00111074	      5.11531119	      0.00000000	    -17.49239942	     11.92399865	     19.84920448	     -9.43807132	     17.72523661	    -10.16323543	      0.00000000	    -23.38542072	     -4.56173280	    -16.47398513
